PathFileType	4	(X/Y/Z)	../Python\running\Running06\task.trc
DataRate	CameraRate	NumFrames	NumMarkers	Units	OrigDataRate	OrigDataStartFrame	OrigNumFrames
200.000000	200.000000	6	30	mm	200.000000	26	208
Frame#	Time	C7			RBAK			CLAV			STRN			RASI			LASI			PE01			RTH1			RTH2			RTH3			RD5M			RTOE			LTH2			LTH3			LTB2			LTB3			LHEE			LTOE			LD5M			RHEE			RTB2			LPSI			RPSI			T10			RTB3			RTB1			PE03			PE02			LTH1			LTB1			
		X1	Y1	Z1	X2	Y2	Z2	X3	Y3	Z3	X4	Y4	Z4	X5	Y5	Z5	X6	Y6	Z6	X7	Y7	Z7	X8	Y8	Z8	X9	Y9	Z9	X10	Y10	Z10	X11	Y11	Z11	X12	Y12	Z12	X13	Y13	Z13	X14	Y14	Z14	X15	Y15	Z15	X16	Y16	Z16	X17	Y17	Z17	X18	Y18	Z18	X19	Y19	Z19	X20	Y20	Z20	X21	Y21	Z21	X22	Y22	Z22	X23	Y23	Z23	X24	Y24	Z24	X25	Y25	Z25	X26	Y26	Z26	X27	Y27	Z27	X28	Y28	Z28	X29	Y29	Z29	X30	Y30	Z30	

27	0.13	-1334.414428710938	1363.400512695313	142.150619506836	-1351.496337890625	1282.708984375	271.2750854492189	-1220.494384765625	1266.125244140625	116.3573226928712	-1187.472412109375	1074.569458007813	121.6196212768555	-1269.386352539063	857.2158813476567	289.8288574218751	-1243.766235351563	879.5305175781255	71.60842895507815	-1413.845092773438	987.1975097656255	183.628646850586	-1476.37109375	623.0105590820315	291.8658142089845	-1496.843139648438	548.7630004882815	271.8025512695314	-1448.000244140625	582.3708496093752	288.0239868164064	-1819.733398437501	88.62707519531253	221.2119293212892	-1790.179809570313	66.02155303955081	174.5859832763672	-1224.306518554688	579.7874145507815	42.52367401123048	-1176.350952148438	640.273376464844	37.43556213378908	-1116.619018554688	242.8959350585939	51.47901535034183	-1087.418334960938	281.9875488281251	54.96321487426761	-1106.323364257813	72.90641784667972	109.0493545532227	-922.393432617188	78.63497161865237	119.4232330322266	-950.4658813476567	54.54944229125979	70.92187500000003	-1835.691406250001	236.435760498047	151.5217285156251	-1686.334350585938	357.7194824218751	245.8013000488282	-1432.421020507813	957.8242797851567	137.6620025634766	-1433.635375976563	960.2477416992192	224.0095977783204	-1398.198974609375	1081.271240234375	185.7561645507813	-1680.027465820313	307.5157470703126	236.5391845703126	-1624.797485351563	362.0816955566407	246.734832763672	-1447.049438476563	943.8816528320317	144.7083435058594	-1457.01953125	938.1721191406255	194.0956420898439	-1223.957153320313	639.9141845703127	28.70724678039552	-1134.990600585938	319.6672668457032	41.5211524963379	
28	0.135	-1318.15087890625	1364.218994140625	140.9260253906251	-1334.451416015625	1284.181396484375	270.6387939453126	-1204.509033203125	1267.215087890625	114.8028945922852	-1170.909301757813	1076.80322265625	120.9964141845704	-1252.04443359375	858.3775024414067	289.6794433593751	-1226.92431640625	881.3197631835942	72.01867675781253	-1396.60595703125	989.0446777343755	184.2695617675782	-1459.015258789063	623.5408325195315	291.8696289062501	-1478.9443359375	549.0813598632815	271.938934326172	-1430.384399414063	583.0231933593752	288.3489379882814	-1810.295166015626	96.32024383544928	219.1838989257814	-1781.185302734376	72.86019134521487	172.4321289062501	-1210.026123046875	579.6341552734377	42.04336166381837	-1161.389404296875	639.4622802734377	35.38122177124025	-1096.469116210938	243.0820312500001	52.80147933959964	-1068.214111328125	282.9819335937501	55.43708419799808	-1080.953369140625	74.54154205322268	110.9123611450196	-896.741333007813	82.71547698974612	122.2634048461915	-924.6383666992192	56.82011795043948	74.15042114257815	-1823.581909179688	244.1540832519532	149.6666107177735	-1670.716552734376	360.826629638672	244.8995056152345	-1415.438232421875	959.4854125976567	138.434310913086	-1415.9326171875	961.983520507813	224.7671661376954	-1381.9208984375	1082.679321289063	185.9202423095704	-1665.675415039063	310.6240234375001	235.2007751464845	-1608.972412109376	363.4645385742189	245.6626434326173	-1429.652221679688	945.5735473632817	145.4195709228516	-1439.504150390625	939.8276977539067	194.817352294922	-1209.243530273438	639.5875244140627	27.63274574279787	-1117.077026367188	319.2810974121095	42.54978942871095	
29	0.14	-1301.887329101563	1364.7880859375	139.6985473632813	-1317.510375976563	1285.350219726563	269.9767150878907	-1188.503540039063	1268.031127929688	113.3300094604493	-1154.404418945313	1078.746704101563	120.4465255737305	-1234.728271484375	859.4434204101567	289.5201110839845	-1210.175903320313	882.7651977539067	72.34095764160159	-1379.546264648438	990.616088867188	184.7294311523438	-1441.108764648438	623.4500122070315	291.9640502929689	-1460.382446289063	548.732604980469	272.1619873046876	-1412.119018554688	583.1074218750002	288.5424804687501	-1800.433959960938	104.116065979004	217.1202087402345	-1771.822753906251	79.892692565918	170.2914123535157	-1195.491821289063	579.2044067382815	41.69237518310548	-1146.185913085938	638.3269042968752	33.030574798584	-1077.17333984375	243.3065643310548	54.10047531127933	-1049.690185546875	283.8531799316407	55.9368705749512	-1057.350708007813	76.16125488281253	112.7231750488282	-872.946899414063	86.19742584228518	124.6943511962891	-900.725463867188	58.75115966796878	77.03986358642581	-1811.028686523438	251.8521270751954	147.6675720214844	-1654.509521484376	363.5524291992189	244.0653533935548	-1398.57958984375	960.7919311523442	139.0591888427735	-1398.369750976563	963.4143676757817	225.3771057128907	-1365.71484375	1083.81201171875	185.8995056152344	-1650.822387695313	313.4039001464845	233.812957763672	-1592.555297851563	364.3838806152345	244.5503845214845	-1412.3916015625	946.885375976563	146.0395965576172	-1422.099975585938	941.1704711914067	195.4583129882814	-1194.389404296875	638.9151000976565	26.45885086059572	-1099.615356445313	318.9855346679689	43.6050262451172	
30	0.145	-1285.626586914063	1365.111938476563	138.4688415527344	-1300.675659179688	1286.236694335938	269.2877502441407	-1172.48095703125	1268.5830078125	111.9421386718751	-1137.963500976563	1080.384155273438	119.9710235595704	-1217.43505859375	860.4096679687505	289.3533935546876	-1193.51416015625	883.8753051757817	72.57023620605472	-1362.660766601563	991.8814086914067	185.0064392089844	-1422.674560546875	622.7724609375002	292.1555786132814	-1441.218627929688	547.7676391601565	272.4738769531251	-1393.251098632813	582.6489868164065	288.6153259277345	-1790.124511718751	111.9595031738282	215.0509643554689	-1762.058715820313	87.02323150634768	168.2151031494141	-1180.665771484375	578.524353027344	41.46564102172853	-1130.72314453125	636.9188232421877	30.54416084289552	-1058.69287109375	243.5060424804689	55.34421539306643	-1031.8037109375	284.5432739257814	56.47479629516604	-1035.528442382813	77.65055847167972	114.4908828735352	-851.0188598632817	88.86679840087893	126.6988067626954	-878.764282226563	60.14373397827151	79.58546447753909	-1797.915649414063	259.5097961425782	145.551498413086	-1637.748046875001	365.9496154785157	243.2985076904298	-1381.8427734375	961.7233276367192	139.5314025878907	-1380.958984375	964.5249633789067	225.833953857422	-1349.5771484375	1084.667114257813	185.7138671875001	-1635.472045898438	315.904510498047	232.4172210693361	-1575.604980468751	364.9240112304689	243.4664764404298	-1395.276123046875	947.796997070313	146.5673522949219	-1404.815307617188	942.1824340820317	196.0180816650392	-1179.340698242188	637.938171386719	25.24279022216798	-1082.55126953125	318.7462463378907	44.64839935302736	
31	0.15	-1269.370971679688	1365.194458007813	137.237289428711	-1283.947509765625	1286.863159179688	268.5698547363282	-1156.444946289063	1268.880126953125	110.6421585083008	-1121.591064453125	1081.7001953125	119.5700607299805	-1200.162231445313	861.2687988281255	289.1814575195314	-1176.930297851563	884.658325195313	72.70355987548831	-1345.939331054688	992.8112792968755	185.1031494140626	-1403.747924804688	621.556579589844	292.4510192871095	-1421.520629882813	546.2515869140627	272.8792724609376	-1373.840209960938	581.6900634765627	288.5953979492189	-1779.319213867188	119.8010711669922	213.0122070312501	-1751.825317382813	94.16953277587893	166.2516174316407	-1165.519775390625	577.6239013671877	41.35628128051759	-1114.992797851563	635.2971801757815	28.084285736084	-1040.997680664063	243.6170043945314	56.50902938842776	-1014.523071289063	284.9939575195314	57.05694961547854	-1015.473083496094	78.9035568237305	116.2174835205079	-830.9340820312505	90.55618286132815	128.2951049804688	-858.7543334960942	60.82771301269534	81.80776977539065	-1784.159912109376	267.0946655273439	143.3491516113282	-1620.468139648438	368.0740966796876	242.5979919433595	-1365.222778320313	962.2614746093755	139.8497009277344	-1363.711181640625	965.3042602539067	226.1356658935548	-1333.502197265625	1085.243896484375	185.3850402832032	-1619.631469726563	318.1763610839845	231.0540008544923	-1558.183715820313	365.1728515625001	242.4821777343751	-1378.310180664063	948.2918090820317	147.0033416748047	-1387.655395507813	942.8474731445317	196.4973144531251	-1164.050537109375	636.7022094726565	24.04140472412111	-1065.848266601563	318.5223388671876	45.64717864990236	
32	0.155	-1253.123168945313	1365.0390625	136.0039215087891	-1267.325073242188	1287.251220703125	267.8203735351564	-1140.39892578125	1268.9306640625	109.4321670532227	-1105.289428710938	1082.68017578125	119.2427673339844	-1182.908447265625	862.0104370117192	289.006072998047	-1160.414306640625	885.121459960938	72.73957061767581	-1329.368408203125	993.378051757813	185.0264434814454	-1384.37353515625	619.8601684570315	292.8569641113282	-1401.3564453125	544.2578125000002	273.385467529297	-1353.952026367188	580.2854614257815	288.5239868164064	-1767.954589843751	127.5957260131837	211.0444335937501	-1741.028686523438	101.2657089233399	164.4462890625001	-1150.034301757813	576.5360107421877	41.3566246032715	-1098.989868164063	633.5244140625002	25.79881477355958	-1024.07080078125	243.5769195556642	57.58386611938479	-997.8306274414067	285.1481323242189	57.68178558349612	-997.1464233398442	79.82685089111331	117.8963012695313	-812.6432495117192	91.150260925293	129.5372619628907	-840.6576538085942	60.67338562011722	83.747428894043	-1769.714111328126	274.5650634765626	141.0919494628907	-1602.704833984376	369.9808044433595	241.9632110595704	-1348.712768554688	962.3909301757817	140.0168609619141	-1346.635009765625	965.7446899414067	226.2839660644532	-1317.483154296875	1085.542602539063	184.9358673095704	-1603.310302734376	320.2678833007814	229.7605285644532	-1540.351318359376	365.2152709960939	241.6638488769532	-1361.494750976563	948.3571777343755	147.3493957519532	-1370.622802734375	943.1509399414067	196.8975830078126	-1148.480834960938	635.2553710937502	22.90801429748536	-1049.494140625	318.2662048339845	46.57920074462892	
